<mxfile host="drawio-plugin" modified="2024-01-11T20:54:58.685Z" agent="5.0 (Windows NT 6.2; Win64; x64) AppleWebKit/537.36 (KHTML, like Gecko) Chrome/104.0.5112.102 Safari/537.36" version="20.5.3" etag="vY9OHE8CYRfXB7289WpQ" type="embed"><diagram id="OUYnMJX3onQ8x5UBOmD4" name="Page-1"><mxGraphModel dx="652" dy="563" grid="1" gridSize="10" guides="1" tooltips="1" connect="1" arrows="1" fold="1" page="1" pageScale="1" pageWidth="850" pageHeight="1100" math="0" shadow="0"><root><mxCell id="0"/><mxCell id="1" parent="0"/><mxCell id="2" value="&lt;b&gt;Start programm&lt;/b&gt;" style="rounded=0;whiteSpace=wrap;html=1;fillColor=#1ba1e2;fontColor=#ffffff;strokeColor=#006EAF;" vertex="1" parent="1"><mxGeometry x="60" y="50" width="120" height="30" as="geometry"/></mxCell><mxCell id="4" value="&lt;b&gt;EnterArrayCapacity&lt;/b&gt;" style="rounded=0;whiteSpace=wrap;html=1;fillColor=#1ba1e2;fontColor=#ffffff;strokeColor=#006EAF;" vertex="1" parent="1"><mxGeometry x="260" y="50" width="120" height="30" as="geometry"/></mxCell><mxCell id="7" value="" style="endArrow=open;endFill=1;endSize=12;html=1;rounded=0;fontSize=13;fontColor=#FFFFFF;" edge="1" parent="1"><mxGeometry width="160" relative="1" as="geometry"><mxPoint x="180" y="64.5" as="sourcePoint"/><mxPoint x="260" y="65" as="targetPoint"/><Array as="points"><mxPoint x="230" y="65"/></Array></mxGeometry></mxCell><mxCell id="10" value="&lt;b&gt;fillingArrayWithRansom&lt;/b&gt;" style="rounded=0;whiteSpace=wrap;html=1;fillColor=#1ba1e2;fontColor=#ffffff;strokeColor=#006EAF;" vertex="1" parent="1"><mxGeometry x="460" y="50" width="160" height="30" as="geometry"/></mxCell><mxCell id="11" value="" style="endArrow=open;endFill=1;endSize=12;html=1;rounded=0;fontSize=13;fontColor=#FFFFFF;" edge="1" parent="1"><mxGeometry width="160" relative="1" as="geometry"><mxPoint x="380" y="65" as="sourcePoint"/><mxPoint x="465" y="64.83" as="targetPoint"/><Array as="points"><mxPoint x="415" y="64.83"/></Array></mxGeometry></mxCell><mxCell id="12" value="&lt;font style=&quot;font-size: 16px;&quot;&gt;while&lt;/font&gt;" style="rounded=1;whiteSpace=wrap;html=1;arcSize=40;fontColor=#000000;fillColor=#ffffc0;strokeColor=#ff0000;fontSize=13;" vertex="1" parent="1"><mxGeometry x="140" y="160" width="120" height="40" as="geometry"/></mxCell><mxCell id="21" value="&lt;b&gt;enter the digit&lt;/b&gt;" style="rounded=0;whiteSpace=wrap;html=1;fillColor=#1ba1e2;fontColor=#ffffff;strokeColor=#006EAF;" vertex="1" parent="1"><mxGeometry x="140" y="240" width="120" height="30" as="geometry"/></mxCell><mxCell id="22" value="" style="endArrow=open;endFill=1;endSize=12;html=1;rounded=0;fontSize=13;fontColor=#FFFFFF;exitX=0.5;exitY=1;exitDx=0;exitDy=0;entryX=0.5;entryY=0;entryDx=0;entryDy=0;" edge="1" parent="1" source="12" target="21"><mxGeometry width="160" relative="1" as="geometry"><mxPoint x="230" y="220" as="sourcePoint"/><mxPoint x="320" y="240" as="targetPoint"/><Array as="points"/></mxGeometry></mxCell><mxCell id="23" value="" style="endArrow=open;endFill=1;endSize=12;html=1;rounded=0;fontSize=13;fontColor=#FFFFFF;exitX=0.5;exitY=1;exitDx=0;exitDy=0;entryX=0.5;entryY=0;entryDx=0;entryDy=0;" edge="1" parent="1"><mxGeometry width="160" relative="1" as="geometry"><mxPoint x="199.33" y="270" as="sourcePoint"/><mxPoint x="199.33" y="310" as="targetPoint"/><Array as="points"/></mxGeometry></mxCell><mxCell id="24" value="&lt;b&gt;ussualSearch&lt;/b&gt;" style="rounded=0;whiteSpace=wrap;html=1;fillColor=#6a00ff;fontColor=#ffffff;strokeColor=#3700CC;" vertex="1" parent="1"><mxGeometry x="140" y="310" width="120" height="30" as="geometry"/></mxCell><mxCell id="25" value="" style="endArrow=open;endFill=1;endSize=12;html=1;rounded=0;fontSize=13;fontColor=#FFFFFF;exitX=1;exitY=0.5;exitDx=0;exitDy=0;" edge="1" parent="1" source="24"><mxGeometry width="160" relative="1" as="geometry"><mxPoint x="329.9999999999999" y="310" as="sourcePoint"/><mxPoint x="320" y="325" as="targetPoint"/><Array as="points"/></mxGeometry></mxCell><mxCell id="26" value="&lt;b&gt;binarySort&lt;/b&gt;" style="rounded=0;whiteSpace=wrap;html=1;fillColor=#6a00ff;fontColor=#ffffff;strokeColor=#3700CC;" vertex="1" parent="1"><mxGeometry x="500" y="310" width="120" height="30" as="geometry"/></mxCell><mxCell id="27" value="&lt;b&gt;sortArrayForBinary&lt;/b&gt;" style="rounded=0;whiteSpace=wrap;html=1;fillColor=#1ba1e2;fontColor=#ffffff;strokeColor=#006EAF;" vertex="1" parent="1"><mxGeometry x="320" y="310" width="120" height="30" as="geometry"/></mxCell><mxCell id="28" value="" style="endArrow=open;endFill=1;endSize=12;html=1;rounded=0;fontSize=13;fontColor=#FFFFFF;exitX=1;exitY=0.5;exitDx=0;exitDy=0;" edge="1" parent="1"><mxGeometry width="160" relative="1" as="geometry"><mxPoint x="440" y="324.33" as="sourcePoint"/><mxPoint x="500" y="324.33" as="targetPoint"/><Array as="points"/></mxGeometry></mxCell><mxCell id="38" value="" style="shape=partialRectangle;whiteSpace=wrap;html=1;top=0;left=0;fillColor=none;fontSize=16;fontColor=#FFFFFF;" vertex="1" parent="1"><mxGeometry x="260" y="80" width="290" height="100" as="geometry"/></mxCell><mxCell id="39" value="" style="shape=partialRectangle;whiteSpace=wrap;html=1;top=0;left=0;fillColor=none;fontSize=16;fontColor=#FFFFFF;" vertex="1" parent="1"><mxGeometry x="420" y="340" width="150" height="80" as="geometry"/></mxCell><mxCell id="40" value="&lt;font style=&quot;font-size: 16px;&quot;&gt;Result&lt;/font&gt;" style="rounded=1;whiteSpace=wrap;html=1;arcSize=40;fontColor=#000000;fillColor=#ffffc0;strokeColor=#ff0000;fontSize=13;" vertex="1" parent="1"><mxGeometry x="250" y="390" width="170" height="60" as="geometry"/></mxCell></root></mxGraphModel></diagram></mxfile>